<svg width="66" height="60" viewBox="0 0 66 60" fill="none" xmlns="http://www.w3.org/2000/svg">
<g clip-path="url(#clip0_7_904)">
<path d="M64.8725 8.68745C64.1721 6.93659 63.0582 5.34653 61.6091 4.02917C60.16 2.7118 58.4109 1.69915 56.485 1.06245C52.8825 0.0124512 49.61 0.0124512 42.955 0.0124512H22.99C16.39 0.0124512 13.0625 0.0124512 9.515 1.01245C7.58626 1.6518 5.83543 2.66829 4.38615 3.99014C2.93686 5.31199 1.82446 6.90697 1.1275 8.66245C0 11.9125 0 14.9125 0 20.9125V39.0875C0 45.1125 0 48.0875 1.1 51.3375C1.80036 53.0883 2.91429 54.6784 4.36339 55.9957C5.81249 57.3131 7.56155 58.3258 9.4875 58.9625C13.0625 59.9875 16.3625 59.9875 22.9625 59.9875H42.9825C49.61 59.9875 52.91 59.9875 56.4575 58.9875C58.3913 58.3512 60.1476 57.3361 61.6018 56.0141C63.056 54.6921 64.1726 53.0955 64.8725 51.3375C66 48.0875 66 45.0875 66 39.0875V20.9625C66 14.9375 66 11.9375 64.8725 8.68745ZM47.905 20.2624L45.3475 22.5875C45.0983 22.7982 44.7719 22.9174 44.4315 22.922C44.0912 22.9267 43.761 22.8164 43.505 22.6125C41.0282 20.7109 37.8919 19.666 34.65 19.6625C31.9825 19.6625 29.315 20.4625 29.315 22.6875C29.315 24.9375 32.175 25.6875 35.475 26.8125C41.25 28.5625 46.035 30.7625 46.035 35.9125C46.035 41.5125 41.25 45.3625 33.44 45.7875L32.725 48.7875C32.6618 49.0631 32.496 49.3106 32.2556 49.4882C32.0152 49.6658 31.7148 49.7626 31.405 49.7625H26.4825L26.235 49.7375C25.8827 49.6656 25.5756 49.4706 25.38 49.1946C25.1845 48.9186 25.1162 48.5838 25.19 48.2625L25.96 45.0875C22.9961 44.412 20.2704 43.0612 18.04 41.1625V41.1375C17.9169 41.026 17.8193 40.8935 17.7527 40.7476C17.6861 40.6018 17.6518 40.4454 17.6518 40.2875C17.6518 40.1295 17.6861 39.9731 17.7527 39.8273C17.8193 39.6814 17.9169 39.5489 18.04 39.4374L20.79 37.0125C21.0397 36.7998 21.3691 36.6814 21.7112 36.6814C22.0534 36.6814 22.3828 36.7998 22.6325 37.0125C25.135 39.1625 28.49 40.3625 31.955 40.3125C35.53 40.3125 37.9225 38.9375 37.9225 36.7625C37.9225 34.5875 35.5025 34.0125 30.9375 32.4625C26.0975 30.8875 21.505 28.6625 21.505 23.4625C21.505 17.4125 27.0325 14.4625 33.5775 14.1875L34.265 11.1125C34.329 10.8392 34.4958 10.5947 34.7368 10.4213C34.9777 10.2479 35.2777 10.1563 35.585 10.1625H40.48L40.755 10.1875C41.47 10.3375 41.9375 10.9625 41.7725 11.6125L41.03 15.0375C43.505 15.7875 45.8425 16.9625 47.85 18.5125L47.905 18.5625C48.4275 19.0625 48.4275 19.8124 47.905 20.2624Z" fill="#121111"/>
</g>
<defs>
<clipPath id="clip0_7_904">
<rect width="66" height="60" fill="white"/>
</clipPath>
</defs>
</svg>
