<svg width="73" height="73" viewBox="0 0 73 73" fill="none" xmlns="http://www.w3.org/2000/svg">
<path d="M11.6587 4.05454C11.3129 4.05796 10.9703 4.12072 10.6458 4.24008V3.04167C10.6458 1.36571 12.0115 0 13.6874 0H58.2996C59.9755 0 61.3412 1.36571 61.3412 3.04167V4.05454H11.6587ZM64.3829 11.1538H8.61698C6.94103 11.1538 5.57532 12.5195 5.57532 14.1955V69.9583C5.57532 71.6343 6.94103 73 8.61698 73H30.8212L34.1609 55.8298H27.3476C27.1924 55.8298 11.6587 55.0968 11.6587 55.0968L25.7689 54.1021L25.5317 52.9889L19.5153 52.122L25.2397 51.6414L24.8625 50.2757L15.5094 48.8553C15.5094 48.8553 25.6716 47.7207 25.8267 47.7207H35.6574L36.4087 43.6723C37.2877 38.7569 39.2831 35.1343 42.4099 32.4394C45.5519 29.7262 49.5396 28.3879 54.3849 28.3879C56.3407 28.3879 57.5878 28.8472 58.1292 29.7962C58.4882 30.3619 58.7406 31.3657 58.9779 32.409C59.2029 33.4796 59.4037 34.4499 59.2668 35.1556C59.0934 36.205 57.8646 36.57 55.6259 36.57H54.8564C50.8201 36.57 48.3655 38.8908 47.5412 43.5962L46.8021 47.7177H51.4862C53.2322 47.7177 53.8618 48.9404 53.3782 51.6901C52.8611 54.5523 51.7387 55.8268 49.9989 55.8268H45.3208L41.9871 73H64.3799C66.0558 73 67.4215 71.6343 67.4215 69.9583V14.1955C67.4215 13.3893 67.1015 12.6161 66.5317 12.0458C65.962 11.4754 65.1891 11.1546 64.3829 11.1538ZM62.3541 7.09621C62.3533 6.82782 62.2463 6.57066 62.0566 6.38088C61.8668 6.19111 61.6096 6.08414 61.3412 6.08333H11.6587C11.3903 6.08414 11.1331 6.19111 10.9433 6.38088C10.7535 6.57066 10.6466 6.82782 10.6458 7.09621V9.125H62.3541V7.09621Z" fill="#2874F0"/>
</svg>
