<svg width="99" height="83" viewBox="0 0 99 83" fill="none" xmlns="http://www.w3.org/2000/svg">
<path d="M0.185625 64.1474C0.482625 63.7076 0.957 63.6773 1.62113 64.064C16.6196 72.0644 32.9464 76.0684 50.5849 76.0684C62.3494 76.0684 73.9654 74.0475 85.4287 70.0207L86.7281 69.4899C87.2974 69.2624 87.6934 69.1107 87.9368 68.997C88.869 68.6633 89.5455 68.8225 90.1024 69.4899C90.5974 70.1496 90.4736 70.7639 89.6074 71.3099C88.5514 72.0303 87.1324 72.8645 85.4576 73.7896C80.3261 76.6068 74.5676 78.7795 68.1945 80.334C53.2671 84.0409 37.4426 83.2745 23.0216 78.1463C14.7873 75.1808 7.20026 70.8783 0.622875 65.4442C0.210375 65.1636 0 64.8754 0 64.61C0 64.4318 0.086625 64.2688 0.210375 64.1171L0.185625 64.1474ZM27.2663 40.5708C27.2663 36.7602 28.2851 33.507 30.3311 30.7997C32.373 28.1076 35.1574 26.0601 38.7461 24.6762C42.0296 23.406 45.9896 22.496 50.7581 21.9462C52.3669 21.7718 55.0193 21.5556 58.6781 21.2864V19.8835C58.6781 16.3573 58.245 13.9761 57.4406 12.7741C56.1949 11.1437 54.2231 10.3095 51.5006 10.3095H50.7499C48.7699 10.484 47.0539 11.0527 45.6101 12.0537C44.1664 13.0775 43.2382 14.4425 42.8257 16.2094C42.5782 17.3469 41.976 17.9725 41.0314 18.1431L30.6364 16.9488C29.6134 16.7213 29.1019 16.2663 29.1019 15.47C29.1019 15.2956 29.1308 15.1288 29.1926 14.9013C30.2115 10.01 32.7195 6.37 36.7001 3.98125C40.7261 1.64558 45.3626 0.284375 50.6839 0H52.9114C59.7176 0 65.109 1.64558 68.9494 4.89125C69.5063 5.46 70.0631 6.02875 70.62 6.71125C71.115 7.33688 71.544 7.90183 71.7874 8.4175C72.0967 8.92558 72.4061 9.66875 72.5917 10.5788C72.8392 11.5418 73.0249 12.1713 73.1486 12.5125C73.2724 12.9068 73.4044 13.65 73.4621 14.8444C73.5034 16.0312 73.5446 16.7137 73.5446 16.9412V36.9612C73.5446 38.3868 73.7921 39.6912 74.2252 40.8893C74.6584 42.0761 75.0915 42.9368 75.5246 43.4449L77.6284 46.0005C77.9996 46.5162 78.1894 46.9712 78.1894 47.3655C78.1894 47.8205 77.9419 48.2224 77.4469 48.5561C72.4969 52.5373 69.7744 54.6986 69.3495 55.0398C68.6689 55.5517 67.8026 55.6086 66.7507 55.2105C65.9874 54.6238 65.2629 53.9958 64.581 53.3298L63.3022 52.0141C62.8503 51.4946 62.4142 50.9635 61.9946 50.4216L60.7571 48.7722C57.4159 52.1316 54.1448 54.2322 50.8571 55.0853C48.8194 55.6541 46.3485 55.946 43.3084 55.946C38.7296 55.946 34.8934 54.6455 31.9234 52.0255C28.9534 49.4092 27.4684 45.7123 27.4684 40.878L27.2621 40.5898L27.2663 40.5708ZM42.7474 38.9101C42.7474 41.0562 43.3249 42.7776 44.5005 44.0819C45.6761 45.3711 47.2849 46.0232 49.2649 46.0232C49.4505 46.0232 49.7021 45.9967 50.0692 45.9474C50.4405 45.8868 50.622 45.8602 50.754 45.8602C53.2867 45.2535 55.209 43.7634 56.628 41.3936C57.3086 40.332 57.8036 39.1945 58.113 37.9432C58.4843 36.7299 58.608 35.7061 58.6699 34.9099C58.7317 34.1705 58.7317 32.8624 58.7317 31.0992V29.0517C55.2667 29.0517 52.6102 29.2793 50.8117 29.7343C45.5524 31.0993 42.8917 34.1705 42.8917 38.948L42.7474 38.8722V38.9101ZM80.5406 65.5541C80.6644 65.3266 80.85 65.137 81.0851 64.9095C82.5784 63.9882 84.0304 63.355 85.4164 63.0137C87.5939 62.5055 89.8217 62.2006 92.0659 62.1037C92.6434 62.0582 93.2209 62.1037 93.7571 62.2175C96.4384 62.445 98.0884 62.8545 98.5916 63.4687C98.8515 63.81 99 64.3332 99 64.9475V65.5162C99 67.45 98.3854 69.725 97.251 72.3412C96.1043 74.9575 94.512 77.0732 92.4825 78.7112C92.1814 78.9387 91.905 79.0525 91.6699 79.0525C91.5461 79.0525 91.4224 79.0525 91.2986 79.007C90.9274 78.8401 90.8573 78.552 91.0346 78.097C93.2621 73.3195 94.3594 69.9714 94.3594 68.087C94.3594 67.5182 94.2356 67.0632 94.0005 66.7826C93.4024 66.1532 91.7317 65.8082 88.9515 65.8082C87.9491 65.8082 86.7529 65.8688 85.3628 65.9826C83.8654 66.1532 82.4753 66.3238 81.2378 66.4945C80.8665 66.4945 80.6272 66.4414 80.4952 66.3276C80.3715 66.2139 80.3467 66.1494 80.4127 66.0357C80.4127 65.9712 80.4375 65.9219 80.4952 65.7968V65.5693L80.5406 65.5541Z" fill="#FF9900"/>
</svg>
