<svg width="91" height="24" viewBox="0 0 91 24" fill="none" xmlns="http://www.w3.org/2000/svg">
<path d="M91 3.38648H81.6422V23.5598H76.239V3.38648H66.904V0.0798162H91V3.38648ZM65.0195 23.5598H46.7399V0.0798162H64.2953V3.38648H52.143V10.0371H63.3398V13.3278H52.143V20.2718H65.0195V23.5598ZM39.585 23.5598H33.6776L18.1242 6.30115C17.7351 5.87161 17.4074 5.41606 17.1459 4.94115H17.0094C17.1308 5.44515 17.1914 6.51982 17.1914 8.16782V23.5598H11.9703V0.0798162H18.2607L33.2946 16.9332C33.9278 17.6292 34.3373 18.1118 34.5193 18.3732H34.6103C34.4587 17.7518 34.3828 16.6958 34.3828 15.2131V0.0771484H39.585V23.5598ZM6.58613 21.7118C6.58613 22.0023 6.50087 22.29 6.33524 22.5584C6.16961 22.8268 5.92684 23.0706 5.62083 23.2759C5.31481 23.4812 4.95155 23.644 4.55181 23.7549C4.15207 23.8659 3.72369 23.9228 3.29117 23.9225C2.85863 23.9225 2.43034 23.8652 2.03078 23.754C1.63121 23.6427 1.26822 23.4796 0.962558 23.2741C0.656893 23.0685 0.41455 22.8245 0.249387 22.556C0.0842242 22.2874 -0.000519362 21.9997 2.3947e-06 21.7091C0.00105449 21.1233 0.348266 20.5617 0.965365 20.1477C1.58246 19.7337 2.41898 19.5011 3.29117 19.5011C3.72369 19.5008 4.15207 19.5577 4.55181 19.6687C4.95155 19.7796 5.31481 19.9424 5.62083 20.1477C5.92684 20.3531 6.16961 20.5969 6.33524 20.8652C6.50087 21.1336 6.58613 21.4213 6.58613 21.7118Z" fill="#512BD4"/>
</svg>
